<svg width="51" height="68" xmlns="http://www.w3.org/2000/svg" xmlns:xlink="http://www.w3.org/1999/xlink" xml:space="preserve" overflow="hidden"><g transform="translate(-390 -129)"><path d="M34.7693 24.5471C34.3147 24.0952 33.5804 24.0952 33.1258 24.5471L23.2184 34.4546 18.7775 30.0137C18.7181 29.9671 18.6558 29.9242 18.591 29.8855 18.2736 29.3254 17.5623 29.1287 17.0022 29.4462 16.8188 29.5502 16.6669 29.702 16.5629 29.8855 16.4582 30.07 16.4058 30.2796 16.4114 30.4916 16.422 30.8971 16.6427 31.268 16.9942 31.4707 17.0338 31.5414 17.0807 31.6079 17.134 31.6688L23.2184 37.7532 29.4309 31.5406 30.445 30.5382 34.7693 26.2023C35.2263 25.749 35.2293 25.0109 34.776 24.5539 34.7738 24.5517 34.7715 24.5494 34.7693 24.5471Z" stroke="#262626" stroke-width="1.16558" fill="#181717" transform="matrix(1.01163 0 0 1 390.202 129)"/><path d="M48.8495 11.6558C48.2058 11.6558 47.6839 12.1776 47.6839 12.8214L47.6839 65.6688 2.33116 65.6688 2.33116 2.33116 12.5999 2.33116C13.2437 2.33116 13.7655 1.80931 13.7655 1.16558 13.7655 0.521848 13.2437 0 12.5999 0L0 0 0 68 50.0151 68 50.0151 12.8214C50.0151 12.1776 49.4933 11.6558 48.8495 11.6558Z" stroke="#262626" stroke-width="1.16558" fill="#181717" transform="matrix(1.01163 0 0 1 390.202 129)"/><path d="M17.3089 2.33116 39.3617 2.33116C40.0259 2.33261 40.6628 2.59655 41.1334 3.06548L47.276 9.19643C47.4911 9.41604 47.7844 9.54173 48.0919 9.54611 48.7352 9.56958 49.2758 9.06711 49.2992 8.42381 49.3111 8.0981 49.186 7.78227 48.9544 7.55297L42.7885 1.42201C41.8799 0.512457 40.6473 0.000966954 39.3617 3.33475e-08L17.3089 0C16.6651 0 16.1433 0.521848 16.1433 1.16558 16.1433 1.80931 16.6651 2.33116 17.3089 2.33116Z" stroke="#262626" stroke-width="1.16558" fill="#181717" transform="matrix(1.01163 0 0 1 390.202 129)"/><path d="M37.7299 4.66232C37.0861 4.66232 36.5643 5.18418 36.5643 5.82791L36.5643 13.0312 43.7676 13.0312C44.4113 13.0312 44.9332 12.5094 44.9332 11.8656 44.9332 11.2219 44.4113 10.7 43.7676 10.7L38.8954 10.7 38.8954 5.82791C38.8954 5.18418 38.3736 4.66232 37.7299 4.66232Z" stroke="#262626" stroke-width="1.16558" fill="#181717" transform="matrix(1.01163 0 0 1 390.202 129)"/><path d="M19.0573 18.9407C18.9556 19.1264 18.9035 19.3351 18.9057 19.5468 18.9124 19.9565 19.1336 20.3327 19.4885 20.5375 20.0455 20.8602 20.7586 20.6703 21.0814 20.1133 21.0827 20.1109 21.0841 20.1086 21.0854 20.1063 21.187 19.9206 21.2391 19.7118 21.2369 19.5002 21.2286 18.8565 20.7 18.3415 20.0564 18.3497 19.6419 18.3551 19.2616 18.5801 19.0573 18.9407Z" stroke="#262626" stroke-width="1.16558" fill="#181717" transform="matrix(1.01163 0 0 1 390.202 129)"/><path d="M23.4398 19.2671C22.7961 19.2671 22.2743 19.7889 22.2743 20.4326 22.2743 21.0764 22.7961 21.5982 23.4398 21.5982L23.5331 21.5982C24.1768 21.5982 24.6987 21.0764 24.6987 20.4326 24.6987 19.7889 24.1768 19.2671 23.5331 19.2671Z" stroke="#262626" stroke-width="1.16558" fill="#181717" transform="matrix(1.01163 0 0 1 390.202 129)"/><path d="M23.4049 5.71135C22.7611 5.71135 22.2393 6.2332 22.2393 6.87693 22.2393 7.52066 22.7611 8.04251 23.4049 8.04251 24.0486 8.04251 24.5704 7.52066 24.5704 6.87693 24.5704 6.2332 24.0486 5.71135 23.4049 5.71135Z" stroke="#262626" stroke-width="1.16558" fill="#181717" transform="matrix(1.01163 0 0 1 390.202 129)"/><path d="M18.7425 10.3154C18.7336 9.90327 18.5074 9.52654 18.1481 9.32465 17.591 9.00832 16.883 9.20093 16.5629 9.75591 16.4629 9.9211 16.4106 10.1107 16.4114 10.3037 16.4012 10.7301 16.6248 11.128 16.9942 11.3411 17.1706 11.4459 17.3717 11.5022 17.577 11.5043 18.0284 11.5164 18.4463 11.2666 18.6493 10.8632L18.6493 10.8632C18.717 10.6888 18.7487 10.5024 18.7425 10.3154Z" stroke="#262626" stroke-width="1.16558" fill="#181717" transform="matrix(1.01163 0 0 1 390.202 129)"/><path d="M17.0058 16.0384C16.6509 16.2432 16.4297 16.6194 16.423 17.0291 16.4209 17.2423 16.4775 17.4519 16.5862 17.6352 16.7932 17.9937 17.1747 18.2156 17.5886 18.218 17.7978 18.2179 18.0031 18.1616 18.1831 18.0549 18.5299 17.8492 18.746 17.4789 18.7542 17.0758 18.7598 16.8637 18.7073 16.6542 18.6027 16.4697 18.2839 15.9104 17.5721 15.7155 17.0128 16.0344 17.0105 16.0357 17.0082 16.037 17.0058 16.0384Z" stroke="#262626" stroke-width="1.16558" fill="#181717" transform="matrix(1.01163 0 0 1 390.202 129)"/><path d="M19.4535 6.79534C18.8971 7.119 18.7084 7.83246 19.0321 8.38891 19.0327 8.39 19.0334 8.3911 19.0339 8.39218 19.2439 8.74617 19.6248 8.96325 20.0363 8.96332 20.2445 8.96679 20.4498 8.91447 20.6308 8.81179 20.9813 8.60405 21.1977 8.22841 21.2019 7.82105 21.2041 7.60937 21.152 7.40066 21.0504 7.21495 20.7267 6.6585 20.0133 6.46977 19.4568 6.79343 19.4558 6.79407 19.4546 6.7947 19.4535 6.79534Z" stroke="#262626" stroke-width="1.16558" fill="#181717" transform="matrix(1.01163 0 0 1 390.202 129)"/><path d="M17.845 13.6723C17.845 14.316 17.3232 14.8378 16.6795 14.8378 16.0357 14.8378 15.5139 14.316 15.5139 13.6723 15.5139 13.0285 16.0357 12.5067 16.6795 12.5067 17.3232 12.5067 17.845 13.0285 17.845 13.6723Z" stroke="#262626" stroke-width="1.16558" fill="#181717" transform="matrix(1.01163 0 0 1 390.202 129)"/><path d="M29.9321 15.9685C29.3736 15.6485 28.6613 15.842 28.3413 16.4005 28.3394 16.4042 28.3373 16.4078 28.3353 16.4114 28.2459 16.581 28.1941 16.7678 28.1838 16.9592 28.1759 17.388 28.4043 17.7865 28.7782 17.9966 28.9525 18.0953 29.1491 18.1475 29.3493 18.1481 29.7699 18.1474 30.1573 17.9202 30.3634 17.5537L30.3634 17.5537C30.4543 17.3853 30.5023 17.1971 30.5033 17.0058 30.5158 16.5819 30.2971 16.1846 29.9321 15.9685Z" stroke="#262626" stroke-width="1.16558" fill="#181717" transform="matrix(1.01163 0 0 1 390.202 129)"/><path d="M28.6966 9.21975C28.143 9.54824 27.9605 10.2633 28.289 10.8169 28.4989 11.1707 28.8797 11.3876 29.2911 11.3877 29.4998 11.3844 29.7044 11.3283 29.8855 11.2245 30.236 11.0168 30.4524 10.6412 30.4566 10.2338 30.4696 10.021 30.4167 9.80937 30.3051 9.6277 29.9796 9.07237 29.2654 8.88613 28.7101 9.21173 28.7056 9.21437 28.701 9.21704 28.6966 9.21975Z" stroke="#262626" stroke-width="1.16558" fill="#181717" transform="matrix(1.01163 0 0 1 390.202 129)"/><path d="M31.3891 13.579C31.3891 12.9353 30.8673 12.4134 30.2235 12.4134 29.5798 12.4134 29.0579 12.9353 29.0579 13.579 29.0579 14.2228 29.5798 14.7446 30.2235 14.7446 30.8673 14.7446 31.3891 14.2228 31.3891 13.579Z" stroke="#262626" stroke-width="1.16558" fill="#181717" transform="matrix(1.01163 0 0 1 390.202 129)"/><path d="M26.3072 18.4745C25.9567 18.6822 25.7402 19.0578 25.736 19.4652 25.7318 19.6824 25.7884 19.8962 25.8992 20.083 26.1091 20.437 26.49 20.654 26.9016 20.6541 27.1119 20.6505 27.3173 20.5901 27.4961 20.4793 27.8465 20.2716 28.063 19.8959 28.0672 19.4885 28.0693 19.2753 28.0128 19.0658 27.904 18.8824 27.5757 18.3289 26.8608 18.1462 26.3072 18.4745Z" stroke="#262626" stroke-width="1.16558" fill="#181717" transform="matrix(1.01163 0 0 1 390.202 129)"/><path d="M27.3795 6.74871C26.821 6.42877 26.1087 6.62224 25.7887 7.18083 25.7867 7.18442 25.7846 7.18802 25.7827 7.19164 25.6933 7.36118 25.6415 7.54806 25.6311 7.73946 25.6233 8.16828 25.8517 8.56674 26.2256 8.77683 26.3998 8.87555 26.5965 8.92773 26.7967 8.92835 27.2148 8.93001 27.6018 8.70763 27.8108 8.34556 27.9146 8.17722 27.971 7.98388 27.9739 7.78608 27.9818 7.35726 27.7534 6.9588 27.3795 6.74871Z" stroke="#262626" stroke-width="1.16558" fill="#181717" transform="matrix(1.01163 0 0 1 390.202 129)"/><path d="M28.7782 38.1611C28.9525 38.2598 29.1491 38.3121 29.3493 38.3126 29.7699 38.312 30.1573 38.0848 30.3634 37.7182 30.4634 37.553 30.5157 37.3634 30.5149 37.1704 30.5251 36.744 30.3015 36.3462 29.9321 36.133 29.3751 35.8104 28.662 36.0003 28.3392 36.5573 28.338 36.5596 28.3366 36.5619 28.3353 36.5643L28.3353 36.5643C28.2403 36.7315 28.1883 36.9198 28.1838 37.1121 28.1716 37.5451 28.4005 37.9491 28.7782 38.1611Z" stroke="#262626" stroke-width="1.16558" fill="#181717" transform="matrix(1.01163 0 0 1 390.202 129)"/><path d="M30.2119 32.6363C29.5681 32.6363 29.0463 33.1581 29.0463 33.8019 29.0463 34.4456 29.5681 34.9674 30.2119 34.9674L30.2119 34.9674C30.8556 34.9674 31.3774 34.4456 31.3774 33.8019 31.3774 33.1581 30.8556 32.6363 30.2119 32.6363Z" stroke="#262626" stroke-width="1.16558" fill="#181717" transform="matrix(1.01163 0 0 1 390.202 129)"/><path d="M27.904 39.047C27.5717 38.4976 26.8578 38.3205 26.3072 38.6507 25.9603 38.8563 25.7442 39.2266 25.736 39.6298 25.7339 39.8429 25.7905 40.0525 25.8992 40.2359 26.1091 40.5898 26.49 40.8069 26.9016 40.807 27.1113 40.8106 27.3176 40.754 27.4961 40.6438 27.8465 40.4361 28.063 40.0604 28.0672 39.6531 28.0693 39.4399 28.0128 39.2303 27.904 39.047Z" stroke="#262626" stroke-width="1.16558" fill="#181717" transform="matrix(1.01163 0 0 1 390.202 129)"/><path d="M23.5214 39.42 23.4398 39.42C22.7961 39.42 22.2743 39.9418 22.2743 40.5855 22.2743 41.2293 22.7961 41.7511 23.4398 41.7511L23.5331 41.7511C24.1768 41.7511 24.6987 41.2293 24.6987 40.5855 24.6987 39.9418 24.1768 39.42 23.5332 39.42 23.5292 39.42 23.5253 39.42 23.5214 39.42Z" stroke="#262626" stroke-width="1.16558" fill="#181717" transform="matrix(1.01163 0 0 1 390.202 129)"/><path d="M17.845 33.8368C17.845 34.4806 17.3232 35.0024 16.6795 35.0024 16.0357 35.0024 15.5139 34.4806 15.5139 33.8368 15.5139 33.1931 16.0357 32.6712 16.6795 32.6712 17.3232 32.6712 17.845 33.1931 17.845 33.8368Z" stroke="#262626" stroke-width="1.16558" fill="#181717" transform="matrix(1.01163 0 0 1 390.202 129)"/><path d="M20.6541 38.674C20.0971 38.3513 19.384 38.5412 19.0612 39.0983 19.0599 39.1006 19.0585 39.1029 19.0573 39.1052 18.9556 39.2909 18.9035 39.4997 18.9057 39.7113 18.9163 40.1169 19.1371 40.4877 19.4885 40.6904 20.0439 41.0159 20.7579 40.8295 21.0835 40.2741 21.0841 40.273 21.0848 40.2719 21.0854 40.2708 21.1847 40.0842 21.2367 39.876 21.2369 39.6647 21.2302 39.255 21.009 38.8788 20.6541 38.674Z" stroke="#262626" stroke-width="1.16558" fill="#181717" transform="matrix(1.01163 0 0 1 390.202 129)"/><path d="M26.2256 28.9414C26.3985 29.0584 26.5998 29.1269 26.8084 29.1395 27.2265 29.1412 27.6134 28.9188 27.8224 28.5567 27.9264 28.3804 27.9788 28.1785 27.9739 27.9739 27.9841 27.5476 27.7605 27.1496 27.3912 26.9366 26.8326 26.6166 26.1203 26.8101 25.8004 27.3687 25.7984 27.3723 25.7963 27.3759 25.7943 27.3795 25.7049 27.5491 25.6532 27.7359 25.6428 27.9273 25.6412 28.3454 25.8635 28.7324 26.2256 28.9414Z" stroke="#262626" stroke-width="1.16558" fill="#181717" transform="matrix(1.01163 0 0 1 390.202 129)"/><path d="M23.4165 28.2071C24.0603 28.2071 24.5821 27.6852 24.5821 27.0415 24.5821 26.3977 24.0603 25.8759 23.4165 25.8759 22.7728 25.8759 22.2509 26.3977 22.2509 27.0415 22.2509 27.6852 22.7728 28.2071 23.4165 28.2071Z" stroke="#262626" stroke-width="1.16558" fill="#181717" transform="matrix(1.01163 0 0 1 390.202 129)"/><path d="M18.6493 36.6342C18.3305 36.075 17.6187 35.8801 17.0594 36.199 17.0571 36.2003 17.0548 36.2015 17.0525 36.2029 16.702 36.4107 16.4855 36.7863 16.4813 37.1937 16.4676 37.4065 16.5205 37.6184 16.6328 37.7998 16.8418 38.1618 17.2288 38.3842 17.6469 38.3826 18.2906 38.3826 18.8125 37.8608 18.8125 37.217 18.8104 37.0117 18.7541 36.8107 18.6493 36.6342Z" stroke="#262626" stroke-width="1.16558" fill="#181717" transform="matrix(1.01163 0 0 1 390.202 129)"/><path d="M19.0339 28.5567C19.2439 28.9107 19.6248 29.1278 20.0363 29.1279 20.2445 29.1314 20.4498 29.079 20.6308 28.9763 20.9813 28.7686 21.1977 28.393 21.2019 27.9856 21.2041 27.7739 21.152 27.5652 21.0504 27.3795 20.733 26.8194 20.0217 26.6227 19.4617 26.9401 19.0976 27.1465 18.872 27.5322 18.8708 27.9506 18.8687 28.1638 18.9252 28.3734 19.0339 28.5567Z" stroke="#262626" stroke-width="1.16558" fill="#181717" transform="matrix(1.01163 0 0 1 390.202 129)"/><path d="M31.3891 53.9081C31.3891 53.2644 30.8673 52.7425 30.2235 52.7425 29.5798 52.7425 29.0579 53.2644 29.0579 53.9081 29.0579 54.5519 29.5798 55.0737 30.2235 55.0737L30.2235 55.0737C30.8673 55.0737 31.3891 54.5519 31.3891 53.9081Z" stroke="#262626" stroke-width="1.16558" fill="#181717" transform="matrix(1.01163 0 0 1 390.202 129)"/><path d="M28.2887 51.134C28.4986 51.488 28.8795 51.7051 29.2911 51.7052 29.9348 51.7052 30.4566 51.1833 30.4566 50.5396 30.4587 50.3264 30.4022 50.1168 30.2935 49.9335 29.9698 49.377 29.2563 49.1883 28.6999 49.512 28.6988 49.5126 28.6977 49.5133 28.6966 49.5139 28.3461 49.7216 28.1297 50.0973 28.1255 50.5046 28.1191 50.7256 28.1757 50.9439 28.2887 51.134Z" stroke="#262626" stroke-width="1.16558" fill="#181717" transform="matrix(1.01163 0 0 1 390.202 129)"/><path d="M28.7782 58.2791C28.954 58.3737 29.1497 58.4257 29.3493 58.4306 29.7699 58.4299 30.1573 58.2027 30.3634 57.8361 30.4632 57.6667 30.5155 57.4734 30.5149 57.2767 30.5184 56.852 30.2907 56.459 29.9205 56.2509 29.3633 55.9346 28.6553 56.1273 28.3353 56.6822 28.2384 56.853 28.1863 57.0454 28.1838 57.2417 28.1759 57.6705 28.4043 58.069 28.7782 58.2791Z" stroke="#262626" stroke-width="1.16558" fill="#181717" transform="matrix(1.01163 0 0 1 390.202 129)"/><path d="M17.0058 56.3675C16.4494 56.6912 16.2607 57.4046 16.5844 57.9611 16.5849 57.9621 16.5856 57.9633 16.5862 57.9643 16.7961 58.3183 17.1771 58.5354 17.5886 58.5355 17.7968 58.539 18.0021 58.4866 18.1831 58.384 18.7505 58.0799 18.9638 57.3733 18.6597 56.806 18.6563 56.7997 18.6528 56.7934 18.6493 56.7871 18.3373 56.224 17.6279 56.0205 17.0648 56.3325 17.0449 56.3436 17.0252 56.3553 17.0058 56.3675Z" stroke="#262626" stroke-width="1.16558" fill="#181717" transform="matrix(1.01163 0 0 1 390.202 129)"/><path d="M16.6911 55.167C17.3349 55.167 17.8567 54.6451 17.8567 54.0014 17.8567 53.3576 17.3349 52.8358 16.6911 52.8358 16.0474 52.8358 15.5255 53.3576 15.5255 54.0014 15.5255 54.6451 16.0474 55.167 16.6911 55.167Z" stroke="#262626" stroke-width="1.16558" fill="#181717" transform="matrix(1.01163 0 0 1 390.202 129)"/><path d="M20.0363 49.2924C20.2424 49.2965 20.4451 49.2397 20.6191 49.1292 20.9706 48.9266 21.1913 48.5557 21.2019 48.1502 21.2031 47.9349 21.1511 47.7226 21.0504 47.5324 20.722 46.9789 20.0072 46.7962 19.4535 47.1244 19.1021 47.3271 18.8814 47.698 18.8708 48.1035 18.8666 48.3207 18.9231 48.5346 19.0339 48.7213 19.2439 49.0753 19.6248 49.2923 20.0363 49.2924Z" stroke="#262626" stroke-width="1.16558" fill="#181717" transform="matrix(1.01163 0 0 1 390.202 129)"/><path d="M18.7425 50.6445C18.7527 50.2181 18.5291 49.8202 18.1598 49.6071 17.6044 49.2817 16.8903 49.4681 16.5648 50.0235 16.5642 50.0245 16.5635 50.0257 16.5629 50.0267L16.5629 50.0267C16.4582 50.2113 16.4058 50.4208 16.4114 50.6328 16.422 51.0383 16.6427 51.4092 16.9942 51.6119 17.5349 51.9613 18.2564 51.8061 18.6057 51.2655 18.6211 51.2416 18.6357 51.2173 18.6493 51.1923 18.7186 51.0183 18.7505 50.8317 18.7425 50.6445Z" stroke="#262626" stroke-width="1.16558" fill="#181717" transform="matrix(1.01163 0 0 1 390.202 129)"/><path d="M26.9016 60.9715C27.1108 60.9714 27.3161 60.9151 27.4961 60.8084 27.8465 60.6007 28.063 60.225 28.0672 59.8176 28.0693 59.6044 28.0128 59.3949 27.904 59.2115 27.5756 58.6579 26.8605 58.4753 26.3068 58.8038 25.9566 59.0115 25.7402 59.3871 25.736 59.7943 25.7339 60.0075 25.7905 60.2171 25.8992 60.4004 26.1091 60.7544 26.49 60.9714 26.9016 60.9715Z" stroke="#262626" stroke-width="1.16558" fill="#181717" transform="matrix(1.01163 0 0 1 390.202 129)"/><path d="M19.4885 60.855C20.0455 61.1776 20.7586 60.9877 21.0814 60.4307 21.0827 60.4284 21.0841 60.4261 21.0854 60.4237 21.187 60.238 21.2391 60.0293 21.2369 59.8176 21.2263 59.4121 21.0055 59.0412 20.6541 58.8385 20.0971 58.5159 19.384 58.7058 19.0612 59.2628 19.0599 59.2651 19.0585 59.2675 19.0573 59.2698 18.9556 59.4555 18.9035 59.6642 18.9057 59.8759 18.9163 60.2814 19.1371 60.6523 19.4885 60.855Z" stroke="#262626" stroke-width="1.16558" fill="#181717" transform="matrix(1.01163 0 0 1 390.202 129)"/><path d="M26.8084 49.2575C27.2289 49.2568 27.6163 49.0296 27.8224 48.663 27.9224 48.4978 27.9748 48.3082 27.9739 48.1152 27.9841 47.6888 27.7605 47.2909 27.3912 47.0778 26.8341 46.7552 26.121 46.9451 25.7983 47.5021 25.797 47.5044 25.7956 47.5068 25.7943 47.5091 25.6975 47.6798 25.6453 47.8723 25.6428 48.0686 25.6393 48.4932 25.867 48.8862 26.2372 49.0943 26.4103 49.1971 26.6071 49.2533 26.8084 49.2575Z" stroke="#262626" stroke-width="1.16558" fill="#181717" transform="matrix(1.01163 0 0 1 390.202 129)"/><path d="M24.5821 47.1944C24.5821 46.5506 24.0603 46.0288 23.4165 46.0288 22.7728 46.0288 22.2509 46.5506 22.2509 47.1944 22.2509 47.8381 22.7728 48.36 23.4165 48.36 24.0603 48.36 24.5821 47.8381 24.5821 47.1944Z" stroke="#262626" stroke-width="1.16558" fill="#181717" transform="matrix(1.01163 0 0 1 390.202 129)"/><path d="M23.4515 61.9157 23.5447 61.9157C24.1885 61.9157 24.7103 61.3938 24.7103 60.7501 24.7103 60.1063 24.1885 59.5845 23.5447 59.5845L23.4748 59.5845C22.8311 59.5845 22.3092 60.1063 22.3092 60.7501 22.3092 61.3938 22.8311 61.9157 23.4748 61.9157Z" stroke="#262626" stroke-width="1.16558" fill="#181717" transform="matrix(1.01163 0 0 1 390.202 129)"/></g></svg>