<svg width="48" height="40" xmlns="http://www.w3.org/2000/svg" xmlns:xlink="http://www.w3.org/1999/xlink" xml:space="preserve" overflow="hidden"><defs><clipPath id="clip0"><rect x="1179" y="278" width="48" height="40"/></clipPath></defs><g clip-path="url(#clip0)" transform="translate(-1179 -278)"><path d="M23.9897 19.4807C21.6987 15.2403 16.4039 13.6599 12.1633 15.9509 11.8955 16.0957 11.6353 16.2543 11.384 16.4263 7.4532 19.2155 6.52779 24.6631 9.31701 28.5939 10.4094 30.1335 11.9717 31.2773 13.7694 31.8538 15.2782 32.3278 16.8883 32.3782 18.4238 31.9992 18.8228 31.8921 19.0594 31.4819 18.9523 31.0829 18.8451 30.6838 18.4349 30.4472 18.0359 30.5544 14.1749 31.4939 10.2833 29.1256 9.34382 25.2645 8.40431 21.4035 10.7727 17.5119 14.6336 16.5724 15.8838 16.2682 17.1926 16.3049 18.4238 16.6784 21.6615 17.6669 23.7701 20.7813 23.4855 24.1546 23.4695 24.5666 23.7904 24.9136 24.2026 24.9297 24.5807 24.9444 24.91 24.6738 24.9691 24.3 25.117 22.6326 24.7767 20.9582 23.9897 19.4807Z" transform="matrix(1.00408 0 0 1 1179 278.068)"/><path d="M34.9082 16.0675C34.1815 15.8572 33.5163 15.4746 32.9689 14.9524 32.6047 14.7589 32.1527 14.8973 31.9592 15.2614 31.8298 15.505 31.8452 15.7999 31.9992 16.0287 32.7053 16.7053 33.5582 17.2098 34.4913 17.5026 37.7926 18.5005 41.2778 16.6333 42.2757 13.3319 43.2737 10.0306 41.4064 6.5454 38.1051 5.54747 36.519 5.06802 34.8074 5.2386 33.3471 6.02167 32.2685 6.58649 31.3838 7.46117 30.8065 8.53312 30.621 8.90142 30.7693 9.35033 31.1376 9.5358 31.1954 9.56498 31.2569 9.58648 31.3204 9.59976 31.6334 9.67178 31.9567 9.52988 32.1156 9.25068 33.3632 6.94822 36.2411 6.09312 38.5436 7.34078 40.8461 8.58843 41.7012 11.4664 40.4535 13.7689 39.3752 15.7588 37.0408 16.7092 34.8791 16.0384Z" transform="matrix(1.00408 0 0 1 1179 278.068)"/><path d="M47.514 14.1475 45.7298 13.5754C45.9003 12.8251 45.9753 12.0561 45.9528 11.287L47.8049 11.1028 47.7273 10.3561C47.5805 8.85893 47.1389 7.40561 46.4279 6.07985L46.0886 5.40108 44.4498 6.28348C44.0321 5.6316 43.5373 5.03254 42.9759 4.49928L44.1492 3.10295 43.5771 2.62781C42.4119 1.68034 41.0753 0.965951 39.6402 0.523623L39.6402 0.523623 38.9033 0.300599 38.3603 2.0751C37.609 1.90991 36.8411 1.83182 36.0718 1.84238L35.8779 0 35.1409 0.0775738C33.6438 0.218063 32.1898 0.65655 30.8647 1.36724L30.1859 1.70662 31.0295 3.36477C30.3917 3.78925 29.8058 4.2872 29.2841 4.84836L27.849 3.64597 27.3836 4.21808C26.421 5.38334 25.6991 6.72808 25.26 8.17434L25.037 8.8919 27.5096 9.64825C27.9055 9.78138 28.3344 9.56835 28.4676 9.17242 28.4718 9.15982 28.4757 9.14712 28.4793 9.13432 28.5812 8.74223 28.3603 8.33855 27.9751 8.21313L27.0054 7.90283C27.2881 7.16385 27.6627 6.46341 28.1205 5.81804L29.5071 6.95256 29.9823 6.38045C30.6561 5.55 31.4905 4.86402 32.4356 4.36353L33.0852 4.01445 32.261 2.41449C33.0059 2.08699 33.7872 1.84936 34.5882 1.70662L34.7628 3.50052 35.5094 3.42295C36.5803 3.32522 37.66 3.43384 38.69 3.74294L39.3687 3.87869 39.8923 2.16237C40.6479 2.45436 41.3644 2.83868 42.0256 3.30658L40.8911 4.72231 41.4729 5.19745C42.3068 5.87804 42.9959 6.71881 43.4995 7.67011L43.8583 8.33919 45.4389 7.48588C45.7663 8.22661 46.0008 9.00503 46.137 9.80339L44.3528 9.97793 44.4207 10.7246C44.5268 11.7948 44.4213 12.8755 44.1104 13.9051L43.8971 14.6227 45.6134 15.1366C45.327 15.8958 44.9458 16.6158 44.4789 17.2796L43.0826 16.1451 42.6074 16.7269C41.9304 17.5605 41.0929 18.2496 40.1445 18.7535L39.4657 19.122 40.319 20.6928C39.5689 21.0266 38.7809 21.2675 37.9724 21.4104L37.8172 19.6165 37.0803 19.6941C36.001 19.8054 34.9105 19.7032 33.8707 19.3935L33.1628 19.1801 32.6295 20.8965 32.3677 20.7704C32.0964 20.6615 31.831 20.5384 31.5726 20.4019 31.2061 20.2128 30.7557 20.3567 30.5667 20.7232 30.3843 21.0766 30.5111 21.511 30.855 21.711 31.413 22.0051 31.9934 22.2548 32.5907 22.4576L32.901 22.574 32.901 22.574 33.6186 22.7873 34.1616 21.0225C34.9126 21.1887 35.681 21.2636 36.45 21.2455L36.6245 23.0976 37.3712 23.0297C38.8878 22.8711 40.3578 22.4129 41.6959 21.6819L42.3747 21.3328 41.4826 19.7038C42.1394 19.2886 42.7419 18.7935 43.2765 18.2299L44.7116 19.3935 45.1771 18.8214C46.135 17.6544 46.8533 16.31 47.291 14.8651Z" transform="matrix(1.00408 0 0 1 1179 278.068)"/><path d="M30.0599 26.9181C29.8503 26.8534 29.6228 26.8854 29.4393 27.0054 29.0912 27.2265 28.9882 27.6878 29.2093 28.036 29.3071 28.1899 29.4579 28.3028 29.6332 28.3532L30.3023 28.5569C29.8172 29.9118 29.1379 31.1889 28.2854 32.3483L26.1812 30.6901 25.706 31.272C24.6935 32.5178 23.4403 33.5467 22.0213 34.2973L21.3522 34.6561 22.6031 36.9542C21.2865 37.5778 19.8845 38.0026 18.4432 38.2148L18.1911 35.6064 17.4444 35.6743C15.8543 35.8282 14.2496 35.6666 12.7221 35.1991L12.0046 34.9761 11.2385 37.4876C9.88281 36.9958 8.60572 36.3099 7.44709 35.4512L9.11493 33.4246 8.56221 32.9689C7.32765 31.9579 6.30593 30.7121 5.55623 29.3035L5.20714 28.7314 4.59625 28.9738 2.90902 29.8465C2.28971 28.5418 1.865 27.1534 1.64844 25.7254L4.25686 25.4733 4.18899 24.7267C4.03564 23.1366 4.1971 21.532 4.66413 20.0044L4.84836 19.2868 2.3757 18.5208C2.86407 17.1654 3.54674 15.8884 4.40232 14.7293L6.42893 16.3972 6.90407 15.8154C7.91099 14.587 9.14986 13.5689 10.55 12.8191L11.1997 12.47 9.99733 10.1525C11.3026 9.53651 12.691 9.11507 14.1184 8.9016L14.3802 11.5003 15.1172 11.4324C16.7105 11.2788 18.3183 11.4403 19.8492 11.9076L20.5668 12.1209 21.3328 9.60946C22.687 10.1004 23.9637 10.783 25.1242 11.6361L24.9206 11.8785 24.7558 12.0821 23.9121 13.11C23.6444 13.4206 23.6791 13.8895 23.9897 14.1572 24.3003 14.425 24.7692 14.3902 25.037 14.0797L25.9581 13.0033 25.9581 13.0033 26.123 12.8191 27.209 11.5391 26.6175 10.9379C24.9815 9.61854 23.1042 8.63048 21.0904 8.02889L21.0904 8.02889 20.3631 7.75738 19.5874 10.2979C18.319 9.98841 17.013 9.86099 15.7087 9.91975L15.5148 7.24346 14.7681 7.32103C12.6398 7.52796 10.5735 8.15412 8.68827 9.16341L8.02889 9.51249 9.25068 11.8688C8.1509 12.5349 7.15176 13.3544 6.28348 14.3027L4.17929 12.6057 3.70415 13.1876C2.34642 14.8441 1.32829 16.7519 0.707861 18.802L0.494533 19.5195 3.03508 20.2953C2.72211 21.5467 2.59148 22.8367 2.64721 24.1255L0 24.3873 0.0678771 25.1242C0.270485 27.2268 0.883232 29.2693 1.87147 31.1362L2.18176 31.9216 4.60595 30.632C5.27201 31.7402 6.09508 32.7462 7.04952 33.6186L5.36229 35.6743 5.91501 36.13C7.57126 37.4981 9.48303 38.5233 11.5391 39.1457L11.5391 39.1457 12.2567 39.359 13.0324 36.8185C14.2997 37.1352 15.6062 37.2658 16.9111 37.2064L17.1632 39.8536 17.9099 39.7857C20.0588 39.5772 22.1452 38.9444 24.0479 37.9239L24.717 37.5651 23.4467 35.2379C24.5582 34.5646 25.5673 33.7351 26.443 32.7749L28.4987 34.4622 28.9641 33.8901C30.3227 32.2305 31.3409 30.3193 31.9604 28.266L32.1834 27.5484Z" transform="matrix(1.00408 0 0 1 1179 278.068)"/><path d="M24.0964 27.3836 21.1874 29.1096C20.8319 29.3185 20.7131 29.7761 20.9221 30.1316 20.9232 30.1336 20.9244 30.1355 20.9255 30.1374 21.022 30.2985 21.1736 30.419 21.3522 30.4768 21.4132 30.4864 21.4754 30.4864 21.5364 30.4768 21.6811 30.4913 21.8267 30.4607 21.9534 30.3896L26.6078 27.6357C27.214 27.2612 27.6464 26.6613 27.8102 25.9678L28.489 23.2915 28.9253 21.5461 29.1678 20.5765 29.9047 17.6674 30.0986 16.9111 30.4671 15.4372 30.7289 14.3899 31.3689 11.8591C31.4616 11.4588 31.2221 11.0566 30.8259 10.9476 30.5412 10.8743 30.2401 10.9772 30.0599 11.2094 29.9907 11.291 29.9411 11.3871 29.9144 11.4906L28.9447 15.2627 28.7411 16.0772 28.4502 17.2505 28.2466 18.0456 26.3072 25.6285C26.2385 25.9369 26.0502 26.2054 25.7836 26.3751Z" transform="matrix(1.00408 0 0 1 1179 278.068)"/></g></svg>