<svg width="55" height="66" xmlns="http://www.w3.org/2000/svg" xmlns:xlink="http://www.w3.org/1999/xlink" xml:space="preserve" overflow="hidden"><g transform="translate(-874 -128)"><path d="M26.634 12.2611C26.9077 12.3047 27.1843 12.327 27.4615 12.3277 27.7801 12.3273 28.0982 12.3018 28.4127 12.2516 29.8867 11.9061 31.163 10.9891 31.9608 9.70238 32.6363 7.95558 32.9252 6.08306 32.8074 4.21388 32.5315 1.32219 29.8301 0 27.4425 0 25.055 0 22.3535 1.32219 22.0777 4.21388 21.9598 6.08306 22.2487 7.95558 22.9242 9.70238 23.7575 11.0281 25.0987 11.9532 26.634 12.2611ZM30.1249 2.85364C29.3506 4.10412 27.7527 4.56124 26.4342 3.90949 25.9713 3.66121 25.3946 3.83525 25.1464 4.29823 24.8981 4.7612 25.0722 5.33778 25.5351 5.58606 25.5524 5.59529 25.5699 5.604 25.5876 5.61216 27.3542 6.48575 29.4766 6.17932 30.9239 4.84168 30.9586 6.19421 30.7458 7.54168 30.2961 8.81775 29.7646 9.61991 28.9489 10.1909 28.0132 10.4158 27.6603 10.4723 27.3008 10.4723 26.9479 10.4158 25.984 10.1977 25.14 9.61905 24.5889 8.79872 24.1018 7.39077 23.8949 5.90105 23.9801 4.41363 24.1418 2.67291 25.835 1.90243 27.4425 1.90243 28.4226 1.88212 29.3765 2.22037 30.1249 2.85364Z" stroke="#181717" stroke-width="0.951213" fill="#262626" transform="matrix(1 0 0 1.02353 874.153 128)"/><path d="M11.7094 19.7472C11.9832 19.7908 12.2598 19.813 12.537 19.8138 12.8557 19.8096 13.1738 19.781 13.4882 19.7282 14.9957 19.414 16.3088 18.4963 17.1218 17.1884 17.7974 15.4416 18.0863 13.5692 17.9684 11.6999 17.8521 10.3465 17.1002 9.12867 15.9423 8.41824 16.091 8.0195 16.1682 7.59769 16.1706 7.17215 16.1689 5.20212 14.5705 3.60651 12.6004 3.60824 11.6563 3.60907 10.7509 3.98421 10.0829 4.65143 9.08362 5.64737 8.76321 7.13767 9.26482 8.45629 8.09896 9.14811 7.32974 10.3513 7.19117 11.6999 7.07273 13.5692 7.36157 15.4418 8.03775 17.1884 8.86226 18.5057 10.1883 19.4297 11.7094 19.7472ZM10.4063 9.92116C10.7506 9.72844 11.1229 9.59042 11.5097 9.51213 12.1975 9.3473 12.9145 9.3473 13.6024 9.51213 13.9891 9.59042 14.3614 9.72844 14.7058 9.92116 15.4454 10.3115 15.9389 11.0481 16.0184 11.8807 16.1092 13.3683 15.9022 14.8591 15.4097 16.2657 14.8781 17.0679 14.0625 17.6389 13.1267 17.8638 12.7743 17.9254 12.4138 17.9254 12.0614 17.8638 11.0977 17.6568 10.2521 17.0839 9.70238 16.2657 9.20984 14.8591 9.00288 13.3683 9.0936 11.8807 9.17316 11.0481 9.66661 10.3115 10.4063 9.92116ZM11.4146 5.99264C12.058 5.33594 13.1119 5.32512 13.7685 5.96849 14.0918 6.28513 14.2722 6.7197 14.2682 7.17215 14.2692 7.347 14.2402 7.52073 14.1826 7.6858 13.6666 7.55389 13.1362 7.48679 12.6036 7.48605L12.6036 7.48605C12.0717 7.48827 11.5418 7.55211 11.0246 7.67629 10.8302 7.08627 10.9806 6.43713 11.4146 5.99264Z" stroke="#181717" stroke-width="0.951213" fill="#262626" transform="matrix(1 0 0 1.02353 874.153 128)"/><path d="M41.4824 19.7282 41.5585 19.7282C41.8322 19.7717 42.1089 19.794 42.3861 19.7948 42.7048 19.7906 43.0228 19.7619 43.3373 19.7091 44.8308 19.3855 46.1286 18.4688 46.9329 17.1694 47.6061 15.4221 47.8917 13.5495 47.7699 11.6809 47.5036 8.7797 44.8022 7.46703 42.4146 7.46703 40.0271 7.46703 37.3256 8.78921 37.0498 11.6809 36.9273 13.5503 37.2163 15.4238 37.8963 17.1694 38.6946 18.4739 39.9892 19.3976 41.4824 19.7282ZM42.4336 9.38848C44.0412 9.38848 45.7343 10.159 45.896 11.8807 45.9813 13.3681 45.7744 14.8578 45.2873 16.2657 44.7557 17.0679 43.9401 17.6389 43.0044 17.8638 42.6392 17.9255 42.2661 17.9255 41.901 17.8638 40.9525 17.6392 40.1237 17.0651 39.58 16.2562 39.0896 14.8489 38.8795 13.3592 38.9617 11.8711 39.0949 10.159 40.788 9.38848 42.4051 9.38848Z" stroke="#181717" stroke-width="0.951213" fill="#262626" transform="matrix(1 0 0 1.02353 874.153 128)"/><path d="M37.9534 33.6254 37.9534 27.081C37.9496 26.9313 37.9105 26.7847 37.8393 26.653 37.6797 26.3361 37.357 26.1345 37.0022 26.1298L37.0022 26.1298C36.6447 26.1236 36.3141 26.3185 36.1461 26.634 36.0843 26.7615 36.0518 26.9013 36.051 27.043L36.051 33.5873C36.051 34.1127 36.4768 34.5386 37.0022 34.5386 37.5276 34.5386 37.9534 34.1127 37.9534 33.5873Z" stroke="#181717" stroke-width="0.951213" fill="#262626" transform="matrix(1 0 0 1.02353 874.153 128)"/><path d="M32.5981 35.3376C32.0727 35.3376 31.6469 35.7634 31.6469 36.2888 31.6469 36.8141 32.0727 37.24 32.5981 37.24L42.4622 37.24C43.6618 37.2561 44.8161 36.782 45.6582 35.9273L47.5131 34.1105 48.2265 33.3971C48.2265 33.3971 48.2265 33.34 48.2836 33.3115 48.599 32.9524 48.599 32.415 48.2836 32.0559 48.2327 32.0093 48.175 31.9709 48.1124 31.9417 47.7448 31.7029 47.2617 31.7461 46.9424 32.0464L44.3646 34.5766C43.8842 35.0616 43.2305 35.3355 42.5478 35.3376L32.5981 35.3376Z" stroke="#181717" stroke-width="0.951213" fill="#262626" transform="matrix(1 0 0 1.02353 874.153 128)"/><path d="M50.2241 40.6358C50.5201 38.7642 50.584 36.8633 50.4143 34.9761 50.3539 34.4508 49.8791 34.0739 49.3537 34.1343 48.8284 34.1947 48.4515 34.6695 48.5119 35.1949 48.7069 37.2021 48.6108 39.2269 48.2265 41.2066L48.0363 42.1578 52.4594 42.9948C51.8271 45.6846 50.764 48.2544 49.3109 50.6046L45.5631 48.0934 45.0304 48.8829C43.4777 51.1997 41.4834 53.1877 39.1615 54.7328L38.3624 55.2655 40.8736 59.0133C38.5328 60.4645 35.9727 61.5278 33.2925 62.1618L32.4174 57.7387 31.4661 57.9194C28.7347 58.4664 25.922 58.4664 23.1906 57.9194L22.363 57.8148 22.0872 58.5947 21.3643 62.1428C18.6944 61.5136 16.144 60.4568 13.8116 59.0133L16.3228 55.2655 15.5333 54.7328C13.2107 53.1807 11.2164 51.1864 9.66433 48.8638L9.14116 48.0743 5.39338 50.595C3.94781 48.2627 2.88787 45.7124 2.25438 43.0424L6.65849 42.1578 6.47776 41.2066C5.96273 38.628 5.93691 35.9757 6.40167 33.3876 7.02223 34.1119 7.68277 34.8011 8.38019 35.4517 9.06638 36.0774 9.7839 36.6679 10.5299 37.221L12.7367 37.221C12.7367 37.3351 12.7367 37.4493 12.7367 37.5634 12.7367 37.9629 12.7367 38.3624 12.8224 38.7524 13.6821 46.1163 19.924 51.667 27.3379 51.6604L27.3379 51.6604C34.0826 51.6636 39.9471 47.035 41.511 40.4741 41.6292 39.9488 41.2991 39.4271 40.7738 39.3089 40.2484 39.1907 39.7268 39.5207 39.6085 40.0461 38.2376 45.7116 33.1857 49.7162 27.3569 49.758L27.3569 49.758C21.4562 49.7557 16.3321 45.6951 14.9816 39.951 14.896 39.5515 14.8199 39.1519 14.7723 38.7524 14.7248 38.3529 14.6962 37.982 14.6772 37.592 14.6772 37.4873 14.6772 37.3827 14.6772 37.2685L29.4876 37.2685C30.013 37.2685 30.4388 36.8427 30.4388 36.3173 30.4388 35.792 30.013 35.3661 29.4876 35.3661L22.2964 35.3661 22.3535 24.0657 22.3535 23.9706C22.2584 22.4867 20.8886 21.583 19.1955 21.0218L19.4904 16.6082C19.5474 15.7616 22.4106 14.525 27.452 14.525 32.4935 14.525 35.3566 15.7616 35.4137 16.6082L35.7086 21.0313C34.0154 21.6021 32.6456 22.5152 32.5505 24.0181L32.3983 33.6159C32.3983 34.1412 32.8242 34.5671 33.3495 34.5671L33.3495 34.5671C33.8749 34.5671 34.3008 34.1412 34.3008 33.6159L34.3008 33.4161 34.4529 24.0657C34.4529 23.7233 34.9571 23.3238 35.8417 22.9623 36.1531 22.8413 36.4707 22.7365 36.7929 22.6484 37.0783 22.5596 37.3953 22.4835 37.7441 22.4201 39.291 22.1112 40.8658 21.9646 42.4431 21.9825L42.4431 21.9825C44.6515 21.9063 46.8554 22.2285 48.9494 22.9338 49.796 23.2667 50.2716 23.6377 50.3668 23.9611 50.3668 23.9611 50.3668 24.0277 50.3668 24.0562L50.4714 25.7018 50.538 26.653C50.1284 27.7707 49.5787 28.8319 48.9019 29.811 48.7591 30.0231 48.7077 30.2836 48.7592 30.5339 48.8063 30.7768 48.9462 30.9918 49.1492 31.1332 49.5826 31.43 50.1745 31.3193 50.4714 30.8859 50.9507 30.1849 51.3738 29.447 51.7365 28.6791 51.9883 28.1658 52.2106 27.6386 52.4023 27.1001L52.4689 26.9193 52.3167 25.1786 52.3167 23.9991 52.3167 23.9991C52.0694 20.3274 44.0602 20.1372 42.4527 20.1372L42.4527 20.1372C40.8323 20.1422 39.2154 20.2886 37.6205 20.5747L37.3542 16.5131C37.1068 12.8414 29.0976 12.6511 27.4901 12.6511L27.4901 12.6511C25.892 12.6511 17.8733 12.8414 17.626 16.5131L17.3596 20.5652C15.7671 20.2861 14.1538 20.143 12.537 20.1372L12.537 20.1372C10.9294 20.1372 2.91071 20.3274 2.67291 23.9991L2.56828 24.7315 2.41608 27.0145 2.5112 27.2332C2.69193 27.6327 3.20559 28.6505 3.20559 28.6505 3.49095 29.1927 3.77632 29.7159 4.09022 30.2201 4.40412 30.7242 4.67046 31.1237 4.97485 31.5613 4.73511 32.3413 4.54449 33.1354 4.40412 33.9393 4.09491 36.1718 4.11413 38.4375 4.46119 40.6644L0 41.549 0.190243 42.5002C0.894255 46.0589 2.30095 49.4414 4.32802 52.4499L4.85119 53.268 8.65604 50.7472C10.0686 52.6876 11.7761 54.3951 13.7165 55.8077L11.1863 59.6125 11.9758 60.1357C14.977 62.1301 18.3418 63.5136 21.8779 64.2069L22.8291 64.4828 23.7803 59.9264C26.1503 60.2974 28.5635 60.2974 30.9335 59.9264L31.8181 64.3876 32.7693 64.2069C36.334 63.4987 39.7245 62.096 42.7475 60.0786L43.537 59.546 41.0163 55.7411C42.9587 54.3345 44.6666 52.6299 46.0768 50.6902L49.8816 53.2299 50.4143 52.4404C52.4216 49.4022 53.8114 45.9989 54.5045 42.4241L54.6948 41.4729ZM19.2335 35.3376 18.7865 35.3376 18.7865 27.081C18.7874 26.5772 18.3952 26.1601 17.8923 26.1298L17.8353 26.1298C17.4672 26.1326 17.1337 26.3475 16.9792 26.6815 16.9188 26.8061 16.8863 26.9425 16.884 27.081L16.884 35.3376 11.2719 35.3376C9.1214 33.6936 7.27653 31.6845 5.82143 29.402 5.67874 29.1832 5.55509 28.9454 5.42192 28.7171 5.02839 28.0415 4.66964 27.3462 4.34705 26.634L4.44217 25.2167 4.51826 24.0562C4.51826 23.7423 4.94631 23.3808 5.69777 23.0479 7.86889 22.2462 10.1768 21.881 12.4894 21.973 14.0666 21.9562 15.6414 22.1028 17.1884 22.4106 17.5214 22.4772 17.8353 22.5533 18.1396 22.6389 18.4624 22.7254 18.78 22.8303 19.0909 22.9528 19.9565 23.3047 20.4416 23.6947 20.4891 24.0372L20.4321 35.2995 19.2335 35.2995Z" stroke="#181717" stroke-width="0.951213" fill="#262626" transform="matrix(1 0 0 1.02353 874.153 128)"/></g></svg>